<?xml version="1.0" encoding="UTF-8" standalone="no"?>
<!-- Created with Inkscape (http://www.inkscape.org/) -->

<svg
   width="210mm"
   height="297mm"
   viewBox="0 0 210 297"
   version="1.1"
   id="svg1"
   inkscape:version="1.3.2 (091e20e, 2023-11-25, custom)"
   sodipodi:docname="marker_plugingait_drawing.svg"
   xmlns:inkscape="http://www.inkscape.org/namespaces/inkscape"
   xmlns:sodipodi="http://sodipodi.sourceforge.net/DTD/sodipodi-0.dtd"
   xmlns="http://www.w3.org/2000/svg"
   xmlns:svg="http://www.w3.org/2000/svg">
  <sodipodi:namedview
     id="namedview1"
     pagecolor="#ffffff"
     bordercolor="#000000"
     borderopacity="0.25"
     inkscape:showpageshadow="2"
     inkscape:pageopacity="0.0"
     inkscape:pagecheckerboard="0"
     inkscape:deskcolor="#d1d1d1"
     inkscape:document-units="mm"
     showguides="true"
     inkscape:zoom="1"
     inkscape:cx="397.5"
     inkscape:cy="539.5"
     inkscape:window-width="1920"
     inkscape:window-height="1017"
     inkscape:window-x="-8"
     inkscape:window-y="-8"
     inkscape:window-maximized="1"
     inkscape:current-layer="layer1">
    <sodipodi:guide
       position="92.471873,213.12709"
       orientation="0,-1"
       id="guide15"
       inkscape:locked="false" />
  </sodipodi:namedview>
  <defs
     id="defs1">
    <rect
       x="464"
       y="367"
       width="139"
       height="39"
       id="rect17" />
  </defs>
  <g
     inkscape:label="Layer 1"
     inkscape:groupmode="layer"
     id="layer1">
    <path
       style="fill:#000000;stroke-width:0.174614"
       d="m 118.55124,121.07099 c 0.0409,-0.96059 0.26443,-3.86498 -0.70492,-4.48529 -0.31807,-0.20355 -0.69205,-0.28403 -1.01518,-0.47773 -0.40175,-0.24084 -0.84872,-0.43221 -1.32798,-0.30543 -1.56261,0.41337 -1.45709,3.43827 -1.25575,4.79501 0.0965,0.64999 0.39504,1.15338 0.46634,1.81698 0.2498,2.32435 0.58271,4.57199 0.74397,6.92279 0.23675,3.45092 -0.0162,6.97681 0.44782,10.38929 0.11559,0.85043 -0.23746,1.82229 -0.0695,2.66024 0.19288,0.96235 0.14906,2.16234 0.12281,3.1616 -0.0173,0.66098 -0.20175,1.62092 -0.0589,2.25446 0.30349,1.3462 0.13197,2.79599 0.19829,4.20136 0.0262,0.56004 0.17558,1.14573 0.16178,1.67365 -0.0239,0.91546 0.13275,1.77344 0.032,2.70805 -0.0811,0.75312 -0.4269,2.55984 -0.18755,3.24371 0.1,0.28573 0.3024,0.37052 0.50172,0.46431 0.34816,0.16386 1.24184,0.30742 1.54161,-0.005 0.63164,-0.65792 0.99736,-1.76909 1.30189,-2.62804 0.043,-0.12116 0.0399,-0.69715 0.12155,-0.71874 0.63222,-0.16726 0.53824,-0.11655 0.62716,-0.96904 0.2607,-2.49984 -0.1237,-2.81227 0.0421,-5.91393 0.15185,-2.84005 0.35856,-0.93816 0.26292,-1.25936 -0.38782,-1.30709 -0.41249,-2.63479 -0.71786,-3.98932 -0.3967,-1.75967 -0.77895,-4.52403 -0.9239,-6.40481 -0.41009,-5.32123 -1.91822,2.11119 -0.36688,2.36006 1.51573,0.24318 -0.16252,-6.92409 0.17948,-8.4825 -0.0629,-5.84245 -0.24105,-6.50595 -0.12328,-11.01247 z"
       id="path1"
       sodipodi:nodetypes="ssssssssssscsssssscsscssscss" />
    <path
       style="fill:#000000;stroke-width:0.221667"
       d="m 121.34406,157.3565 c -0.1995,0.59057 -0.51873,1.20401 -0.58879,1.8521 -0.0424,0.39225 0,0.83893 0,1.23471 0,0.27967 -0.0712,0.73227 0,0.9922 0.0579,0.21144 0.19789,0.30529 0.27175,0.48507 0.0246,0.06 0.0142,0.21926 0.0453,0.26458 0.0391,0.0571 0.29075,-0.20924 0.31705,-0.24254 0.20894,-0.26447 0.40052,-0.63163 0.45291,-1.01423 0.0915,-0.66833 0.0453,-1.71405 0.0453,-2.42536 0,-0.26506 -0.0906,-0.51235 -0.0906,-0.77169 0,-0.13229 0.10751,-0.38118 0,-0.39689 -1.37376,-0.20062 -1.95148,3.85661 -1.17758,4.23335 0.0684,0.0333 0.0404,0.20828 0.18116,0.24253 0.0456,0.0111 0.33345,0.0352 0.36234,0 0.31213,-0.37988 0.33987,-3.27254 0.27174,-3.9026 -0.0201,-0.1858 0.0358,-0.44519 -0.0906,-0.55123 -0.20139,-0.16884 -0.48044,-0.13229 -0.72467,-0.13229 -0.4208,0 -0.89811,3.07284 -0.76997,3.57189 0.10281,0.40039 0.62783,0.98914 0.95113,1.14652 0.0912,0.0444 0.71925,0.1063 0.45292,-0.0882"
       id="path4" />
    <path
       style="fill:#000000;stroke-width:0.245759"
       d="m 116.50266,161.94435 c -0.16184,0.0289 -0.50253,-0.0986 -0.48546,0.0862 0.0171,0.18479 0.56338,-0.25455 0.48546,-0.0862 -0.16756,0.362 -0.56546,0.50914 -0.81699,0.80248 -0.0254,0.0296 -0.12619,0.58023 -0.10816,0.63366 0.28795,0.84875 0.34831,1.62143 0.46325,2.49441 0.0213,0.161 0.15409,0.31007 0.18198,0.46582 0.0702,0.39151 0.0584,0.8344 0.21423,1.19593 0.3714,0.86153 0.98407,1.59799 1.13196,2.56028 0.41163,2.6788 0.13429,5.27609 -0.16551,8.01472 -0.10527,0.9586 -0.33077,1.93728 -0.49288,2.88668 -0.32057,1.87751 -0.64115,3.75501 -0.96173,5.63252 -0.23965,1.40343 -0.34357,2.79063 -0.45521,4.19737 -0.0543,0.68547 -0.24093,1.41111 -0.35663,2.08874 -0.0915,0.53546 -0.12698,1.12598 -0.2805,1.64283 -0.16277,0.54804 -0.50978,1.28108 -0.73115,1.83155 -0.0768,0.19067 -0.0274,0.44531 -0.10817,0.63367 -0.20276,0.47269 -0.21584,0.96886 -0.40089,1.42903 -0.0995,0.24751 -0.82776,2.85308 -0.80584,2.88156 0.21385,0.27782 1.18289,0.12599 1.50462,0.37766 0.50999,0.39851 0.67334,0.99685 0.87764,1.59904 0.015,0.044 0.0991,0.0852 0.14444,0.073 0.02,-0.006 0.40025,-1.73148 0.41421,-1.81322 0.0885,-0.51849 0.27125,-1.0972 0.27649,-1.61936 0.009,-0.92274 0.0534,-1.8326 0.10516,-2.75966 0.0625,-1.12235 0.32556,-2.2494 0.31489,-3.37597 -0.005,-0.50792 0.20059,-1.04998 0.21359,-1.55763 0.0248,-0.96062 0.28714,-1.98853 0.45004,-2.9423 0.0703,-0.41173 0.2139,-0.87605 0.22039,-1.29079 0.0152,-0.96821 0.30691,-1.89438 0.38318,-2.85709 0.14886,-1.87746 0.51249,-3.7407 1.00058,-5.55345 0.26786,-0.9949 0.36397,-2.13173 0.53695,-3.14482 0.45719,-2.67765 0.88463,-5.01698 0.9546,-7.73507 0.0104,-0.42328 0.0217,-0.81747 0.0554,-1.24644 0.0232,-0.2882 0.14711,-0.58126 0.14828,-0.86834 0.004,-0.91249 0.0206,-1.34613 0.1814,-2.28773 0.0592,-0.3469 0.0769,-0.74749 0.1843,-1.07957 0.05,-0.15519 0.30088,-0.37025 0.18178,-0.45202 -0.3404,-0.23375 -0.80311,-0.33446 -1.09678,-0.62202 -0.24615,-0.24107 -0.17556,-0.77953 -0.49363,-0.78474 -0.3291,-0.006 -0.42671,0.21552 -0.68199,0.31832 -0.76205,0.30683 -1.40141,0.51814 -2.18386,0.23094 z"
       id="path5" />
    <path
       style="fill:#000000;stroke-width:0.218795"
       d="m 116.1111,166.77699 c 0.26706,0.77187 0.38593,1.66299 0.58471,2.42383 0.0492,0.18877 0.15424,0.31061 0.16782,0.53096 0.0277,0.44861 -0.23416,0.98527 -0.21683,1.43605 0.009,0.22203 -0.0535,0.42174 -0.056,0.64166 -0.005,0.66853 -0.0992,1.39464 -0.0596,2.03766 0.0212,0.34499 -0.12127,0.83714 -0.14073,1.20675 -0.0306,0.5566 -0.1757,1.16441 -0.25936,1.71857 -0.21877,1.44931 -0.49682,3.00954 -0.6312,4.45552 -0.19275,2.07467 -0.60397,4.85628 -1.07783,6.86814 -0.34076,1.44669 -0.18771,3.83679 -0.54991,5.28643 -0.063,0.25207 -1.10517,3.62478 -1.05073,4.22365 0.0158,0.17452 -0.12694,3.03725 -0.12799,3.03862 -0.10377,0.1311 0.0193,-0.12091 -0.0914,0.0585 -0.19772,0.31882 -0.33768,0.59438 -0.40234,1.02278 -0.009,0.0598 -0.0617,0.46954 -0.0712,0.47082 -0.0795,0.0106 -0.29472,4.7e-4 -0.36364,-0.0549 -0.30031,-0.24152 -0.25673,-0.48951 -0.17757,-1.01402 0.25193,-1.66918 0.53484,-3.33269 0.54766,-4.99783 0.004,-0.50887 0.60352,-0.89844 0.58395,-1.40471 -0.021,-0.54235 0.11095,2.68399 -0.65816,2.7178 0.69576,-1.46265 0.64561,-6.96807 0.92026,-8.28844 0.19619,-0.94289 0.68929,-2.65034 0.83357,-3.60632 0.22504,-1.49116 0.54833,-3.32601 0.64405,-4.81475 0.15952,-2.48199 0.56266,-4.54951 0.9376,-7.03378 0.35045,-2.32218 0.2247,-4.63759 0.7142,-6.92303 z"
       id="path6"
       sodipodi:nodetypes="sssscscscsssccsscsssccssscs" />
    <path
       style="fill:#000000;stroke-width:0.301942"
       d="m 114.594,203.02205 c -0.51999,-0.25223 -0.79401,-0.43476 -1.32947,-0.30793 -0.5024,0.11896 -0.74603,0.46484 -0.83206,0.91666 -0.0213,0.11325 -0.18666,0.63395 -0.14002,0.73551 0.43615,0.94806 3.0383,-0.0446 2.30156,-1.34421 -0.18203,-0.32107 -0.56991,-0.5096 -0.88275,-0.7355 -0.21324,-0.15397 -0.61855,0.37872 -0.66931,0.44565 -0.45198,0.59596 -1.5871,1.93152 -0.54914,2.49997 0.25361,0.13893 0.61241,0.23555 0.91319,0.19202 0.45084,-0.0652 1.71651,-1.02845 1.53518,-1.53987 -0.10328,-0.29122 -0.15712,-0.60865 -0.34721,-0.86229 -0.3206,-0.42777 -1.34867,-1.18208 -1.64434,-0.95651 -0.49331,0.37641 -0.69958,0.98844 -0.80594,1.54708 -0.31778,1.66891 2.14797,1.51594 2.70235,0.38769 0.0216,-0.044 0.10725,-0.0693 0.0952,-0.11593 -0.0768,-0.29775 -0.23148,-0.57487 -0.34722,-0.86231 z"
       id="path7" />
    <path
       style="fill:#000000;stroke-width:0.376703"
       d="m 111.21148,204.10223 c -0.52276,1.12496 -1.62646,1.85409 -2.62045,2.35318 -0.10352,0.052 -0.21163,0.38673 -0.26691,0.45101 -0.83282,0.96864 -1.37573,3.06846 0.44876,3.3478 1.20517,0.18458 1.09329,-1.01146 1.85008,-1.15954 0.20378,-0.0399 0.41043,0.0629 0.61567,0.0942"
       id="path8" />
    <path
       style="fill:#000000;stroke-width:0.301942"
       d="m 110.29141,208.44135 c 0.58301,0.0563 1.49563,0.70683 2.13367,0.59117 0.19017,-0.0345 0.59087,-0.19962 0.80976,-0.19681 0.16686,0.002 0.31749,0.0981 0.49306,0.0975 2.34077,-0.006 4.55969,0.80394 6.69439,1.55356 1.22729,0.431 3.09261,0.72599 4.45258,1.06874 0.52735,0.13292 1.69468,0.32504 1.66283,0.90016 -0.0121,0.22155 1.01832,-0.1334 1.17964,-0.18376 0.0941,-0.0294 0.2442,0.0824 0.36225,0.0373 0.13562,-0.0512 0.33947,-0.20036 0.43981,-0.20986 0.12086,-0.0113 0.25018,0.0801 0.36222,0.0373 0.0529,-0.02 0.0576,-0.098 0.0465,-0.14862 -0.008,-0.0395 -0.88727,-0.47208 -1.04717,-0.47773 -0.14568,-0.005 -0.43902,0.29693 -0.55571,0.34102 -0.16372,0.0619 -0.95692,-0.11486 -1.1636,-0.10623 -0.17269,0.008 -0.32071,0.14236 -0.4936,0.14286 -0.52048,0.001 -1.06248,-0.16226 -1.57958,-0.21103 -0.63832,-0.0602 -1.17813,-0.10633 -1.83414,-0.11481 -0.29798,-0.004 -0.73301,-0.2191 -1.02441,-0.3116 -1.09877,-0.34887 -2.26234,-0.61821 -3.39714,-0.85617 -0.23827,-0.0499 -0.4468,0.0182 -0.68606,0.0409 -0.27829,0.0264 -0.65696,-0.11046 -0.92456,-0.15285 -0.31597,-0.0495 -0.63667,-0.0124 -0.95562,-0.0538 -0.46736,-0.0598 -2.76656,-0.80077 -3.25015,-1.0864 -0.24571,-0.14516 -0.93042,-0.24989 -0.66169,-0.51421"
       id="path9" />
    <path
       style="fill:#000000;stroke-width:0.44617"
       d="m 115.17711,207.30525 c 0.20196,0.16932 0.38606,0.39919 0.606,0.5076 0.83028,0.40933 1.89946,0.32843 2.81021,0.37107 0.34369,0.0163 0.34077,0.17861 0.63891,0.33478 0.38474,0.20177 0.87602,0.1341 1.29721,0.19859 0.28759,0.0441 0.90583,-0.47777 1.15818,-0.17822 0.32859,0.39008 -0.1978,0.17903 0.28655,0.34019 0.31459,0.10461 0.68008,-0.23061 0.99966,-0.0839 0.79982,0.36688 1.53424,0.92185 2.38367,1.13531 0.31539,0.0791 1.94244,1.20438 1.94568,1.22122 0.0347,0.17928 -0.0776,-0.69832 -0.55328,-0.41536 -0.6866,0.40833 -2.01948,-0.24766 -2.75291,-0.30308 -0.23485,-0.0179 -0.73147,0.0986 -0.98875,0.0264 -0.20674,-0.0578 -0.34777,-0.35657 -0.54868,-0.43955 -0.78992,-0.32628 -1.71449,-0.14179 -2.52615,-0.38678 -0.42502,-0.12839 -0.81401,-0.4152 -1.22049,-0.60169 -0.93966,-0.43109 -2.03605,-0.19279 -3.02599,-0.34486"
       id="path10"
       sodipodi:nodetypes="ccccssscccsccsssc" />
    <path
       style="fill:#000000;stroke-width:0.301942"
       d="m 112.23643,206.63439 c -0.15069,-0.23189 -0.19342,-0.83074 -0.45201,-0.69564 -0.25859,0.13512 0.18489,0.57464 0.45201,0.69564 0.10967,0.0498 2.37143,0.17342 1.86788,-0.60144 -0.21897,-0.33704 -1.22511,-0.26761 -1.51009,-0.12645 -0.0241,0.0119 -0.90849,-0.10072 -0.87114,-0.0293 0.13926,0.26771 0.34221,0.50484 0.51333,0.75724 z"
       id="path12" />
    <path
       style="fill:#000000;stroke-width:0.301942"
       d="m 114.66112,206.56191 c -0.58665,-0.0436 -0.74679,0.39205 -1.13387,0.58335 -0.3605,0.17815 -0.66738,0.0756 -1.0146,0.34057 -0.0877,0.067 -0.0357,0.40079 0.0599,0.45291 0.31643,0.17327 2.33554,-0.4584 2.31796,-0.66306 -0.0212,-0.24688 -0.15291,-0.47584 -0.22937,-0.71377 z"
       id="path13" />
    <path
       style="fill:#000000;stroke-width:0.301942"
       d="m 115.02331,204.65977 c -0.13643,0.43793 -0.6673,1.03169 -0.5882,1.55432 0.0319,0.21071 0.55769,-0.0673 0.62104,-0.19202 0.357,-0.70284 0.31344,-0.52686 -0.0328,-1.3623 z"
       id="path14" />
    <path
       style="fill:#000000;stroke-width:0.28997"
       d="m 113.51427,121.31661 c 0.82959,-0.19453 -0.72444,-3.20561 -0.14808,-3.76897 0.81341,-0.7951 0.7964,-1.7505 2.03419,-2.12643 1.34787,-0.40937 1.48547,-0.41286 2.6746,-0.0181 0.11721,0.039 0.28331,-0.0569 0.4005,-0.0181 0.1442,0.048 0.72066,1.01943 0.85049,1.06254 0.15824,0.0525 -0.41602,0.42835 -0.24858,0.42081 0.0521,-0.002 0.59979,-1.10978 0.61456,-1.20533 0.0261,-0.16888 -0.0184,-0.40878 -0.0265,-0.58764 -0.0113,-0.25092 -0.71638,-1.8101 -0.89538,-2.05894 -0.16282,-0.22635 -0.40705,-0.48881 -0.50293,-0.77098 -0.41209,-1.21279 -0.44755,-2.51088 -0.50756,-3.84289 -0.0429,-0.95159 0.56985,-1.75387 0.95406,-2.57748 0.11326,-0.24281 0.59627,-0.50739 0.76992,-0.72592 0.34315,-0.43183 0.66172,-0.91372 1.00929,-1.35112 0.12025,-0.15132 0.11185,-0.6959 0.16228,-0.85215 0.24725,-0.76608 -0.97299,-1.66046 -1.55828,-1.92667 -0.11649,-0.053 -0.23817,-0.24011 -0.34872,-0.31712 -0.42242,-0.29419 -0.99533,-0.579 -1.50303,-0.700307 -2.5531,-0.610008 -5.18618,-0.404113 -7.75681,0.04224 -1.19285,0.207127 -2.16195,0.638677 -3.22356,1.194867 -0.57704,0.30231 -1.24292,0.4665 -1.76886,0.82211 -0.27895,0.1886 -0.49508,0.46866 -0.70663,0.64627 -0.23494,0.19723 -0.58849,0.3356 -0.77683,0.57261 -0.93003,1.17037 -1.79047,2.70879 -1.20492,4.43207 0.43758,1.28783 2.62612,5.50444 4.56895,4.91437 1.38004,-0.41914 1.47621,-1.93538 3.18672,-2.01244 0.14231,-0.006 0.40127,-0.068 0.534,-0.0241 0.29872,0.0992 0.42116,0.52769 0.63413,0.71386 0.1914,0.16731 0.0965,0.33326 0.15767,0.53053 0.36822,1.18794 -0.33755,2.25057 -0.51557,3.40256 -0.0612,0.39681 0.0893,2.79336 0.27393,3.11098 0.14655,0.25213 0.36311,0.52872 0.50063,0.71988 0.24322,0.33811 0.20287,0.57969 0.76071,0.55456"
       id="path15"
       sodipodi:nodetypes="cssccssssscsssssscssssscssscsccssc" />
    <path
       style="fill:#000000;stroke-width:0.264583"
       d="m 102.89093,110.80295 c 0.0992,0.40313 0.15563,0.88993 0.35635,1.27091 0.45332,0.86048 0.94574,1.68475 1.36936,2.51224 0.0787,0.15383 0.12332,0.30415 0.20052,0.46762 0.0667,0.14131 0.2451,0.19734 0.31349,0.31954 0.10669,0.1907 -0.0471,0.26486 0.13761,0.39895 0.11684,0.0848 0.28095,0.14833 0.36997,0.2455 0.03,0.0328 0.0671,0.16058 0.0651,0.11622 -0.0121,-0.2673 -0.0172,-2.8956 -0.0754,-2.99951 -0.18993,-0.33935 -0.50682,-0.2988 -0.73887,-0.4672 -0.19785,-0.14359 -1.82656,-1.19504 -1.85199,-1.27504 -0.0612,-0.19286 -0.0975,-0.39282 -0.14618,-0.58923 z"
       id="path16" />
    <circle
       style="fill:#ff0000;stroke-width:0.264583"
       id="path17"
       cx="114.20346"
       cy="106.36276"
       r="1.3"
       transform="rotate(-2.5794735)" />
    <circle
       style="fill:#ff0000;stroke-width:0.264583"
       id="path17-4"
       cx="96.378761"
       cy="111.08923"
       r="1.3"
       transform="rotate(-2.5794735)" />
    <circle
       style="fill:#ff0000;stroke-width:0.264583"
       id="path17-4-2"
       cx="111.20028"
       cy="142.02347"
       r="1.3"
       transform="rotate(-2.5794735)" />
    <circle
       style="fill:#ff0000;stroke-width:0.264583"
       id="path17-4-2-3"
       cx="110.3695"
       cy="165.43781"
       r="1.3"
       transform="rotate(-2.5794735)" />
    <circle
       style="fill:#ff0000;stroke-width:0.264583"
       id="path17-4-2-2"
       cx="145.13011"
       cy="158.63379"
       r="1.3"
       transform="rotate(9.6894974)" />
    <circle
       style="fill:#ff0000;stroke-width:0.302041"
       id="path17-4-2-6"
       cx="148.37057"
       cy="184.09258"
       transform="matrix(0.98848055,0.15134798,-0.18704731,0.98235091,0,0)"
       r="1.3" />
    <circle
       style="fill:#ff0000;stroke-width:0.302041"
       id="path17-4-2-39"
       cx="144.2256"
       cy="189.1591"
       transform="matrix(0.98848055,0.15134798,-0.18704731,0.98235091,0,0)"
       r="1.3" />
    <circle
       style="fill:#ff0000;stroke-width:0.302041"
       id="path17-4-2-7"
       cx="163.39977"
       cy="188.5146"
       transform="matrix(0.98848055,0.15134798,-0.18704731,0.98235091,0,0)"
       r="1.3" />
    <text
       xml:space="preserve"
       transform="scale(0.26458333)"
       id="text17"
       style="white-space:pre;shape-inside:url(#rect17);display:inline;fill:#ff0000" />
    <text
       xml:space="preserve"
       style="font-style:normal;font-variant:normal;font-weight:normal;font-stretch:normal;font-size:4.23333px;font-family:sans-serif;-inkscape-font-specification:'sans-serif, Normal';font-variant-ligatures:normal;font-variant-caps:normal;font-variant-numeric:normal;font-variant-east-asian:normal;fill:#000000;stroke-width:0.264583"
       x="121.97292"
       y="101.6"
       id="text18"><tspan
         sodipodi:role="line"
         id="tspan21">Anterior</tspan><tspan
         sodipodi:role="line"
         id="tspan22">Iliac Crest</tspan></text>
    <text
       xml:space="preserve"
       style="font-style:normal;font-variant:normal;font-weight:normal;font-stretch:normal;font-size:4.23333px;font-family:sans-serif;-inkscape-font-specification:'sans-serif, Normal';font-variant-ligatures:normal;font-variant-caps:normal;font-variant-numeric:normal;font-variant-east-asian:normal;fill:#000000;stroke-width:0.264583"
       x="82.027046"
       y="111.03198"
       id="text18-5"><tspan
         sodipodi:role="line"
         id="tspan19"
         x="82.027046"
         y="111.03198">Posterior </tspan><tspan
         sodipodi:role="line"
         id="tspan20"
         x="82.027046"
         y="116.32365">Iliac Crest</tspan></text>
    <text
       xml:space="preserve"
       style="font-style:normal;font-variant:normal;font-weight:normal;font-stretch:normal;font-size:4.23333px;font-family:sans-serif;-inkscape-font-specification:'sans-serif, ';font-variant-ligatures:normal;font-variant-caps:normal;font-variant-numeric:normal;font-variant-east-asian:normal;fill:#000000;stroke-width:0.264583"
       x="119.86244"
       y="138.28407"
       id="text18-8"><tspan
         sodipodi:role="line"
         id="tspan18-7"
         style="font-style:normal;font-variant:normal;font-weight:normal;font-stretch:normal;font-size:4.23333px;font-family:sans-serif;-inkscape-font-specification:'sans-serif, ';font-variant-ligatures:normal;font-variant-caps:normal;font-variant-numeric:normal;font-variant-east-asian:normal;fill:#000000;stroke-width:0.264583"
         x="119.86244"
         y="138.28407">Thigh</tspan></text>
    <text
       xml:space="preserve"
       style="font-style:normal;font-variant:normal;font-weight:normal;font-stretch:normal;font-size:4.23333px;font-family:sans-serif;-inkscape-font-specification:'sans-serif, Normal';font-variant-ligatures:normal;font-variant-caps:normal;font-variant-numeric:normal;font-variant-east-asian:normal;fill:#000000;stroke-width:0.264583"
       x="91.975777"
       y="202.26155"
       id="text18-8-2"><tspan
         sodipodi:role="line"
         id="tspan23"
         x="91.975777"
         y="202.26155">Malleolus</tspan></text>
    <g
       id="g1"
       transform="translate(-14.545887,59.702813)">
      <text
         xml:space="preserve"
         style="font-style:normal;font-variant:normal;font-weight:normal;font-stretch:normal;font-size:4.23333px;font-family:sans-serif;-inkscape-font-specification:'sans-serif, ';font-variant-ligatures:normal;font-variant-caps:normal;font-variant-numeric:normal;font-variant-east-asian:normal;fill:#000000;stroke-width:0.264583"
         x="119.59167"
         y="102.39375"
         id="text18-2"><tspan
           sodipodi:role="line"
           id="tspan18-4"
           style="font-style:normal;font-variant:normal;font-weight:normal;font-stretch:normal;font-size:4.23333px;font-family:sans-serif;-inkscape-font-specification:'sans-serif, ';font-variant-ligatures:normal;font-variant-caps:normal;font-variant-numeric:normal;font-variant-east-asian:normal;fill:#000000;stroke-width:0.264583"
           x="119.59167"
           y="102.39375">Knee</tspan></text>
    </g>
    <g
       id="g2"
       transform="translate(-0.0454773,80.024053)">
      <text
         xml:space="preserve"
         style="font-style:normal;font-variant:normal;font-weight:normal;font-stretch:normal;font-size:4.23333px;font-family:sans-serif;-inkscape-font-specification:'sans-serif, ';font-variant-ligatures:normal;font-variant-caps:normal;font-variant-numeric:normal;font-variant-east-asian:normal;fill:#000000;stroke-width:0.264583"
         x="119.59167"
         y="102.39375"
         id="text18-2-6"><tspan
           sodipodi:role="line"
           id="tspan18-4-2"
           style="font-style:normal;font-variant:normal;font-weight:normal;font-stretch:normal;font-size:4.23333px;font-family:sans-serif;-inkscape-font-specification:'sans-serif, ';font-variant-ligatures:normal;font-variant-caps:normal;font-variant-numeric:normal;font-variant-east-asian:normal;fill:#000000;stroke-width:0.264583"
           x="119.59167"
           y="102.39375">Shank</tspan></text>
    </g>
    <text
       xml:space="preserve"
       style="font-style:normal;font-variant:normal;font-weight:normal;font-stretch:normal;font-size:4.23333px;font-family:sans-serif;-inkscape-font-specification:'sans-serif, Normal';font-variant-ligatures:normal;font-variant-caps:normal;font-variant-numeric:normal;font-variant-east-asian:normal;fill:#000000;stroke-width:0.264583"
       x="120.55078"
       y="207.02406"
       id="text18-8-8"><tspan
         sodipodi:role="line"
         id="tspan24">Toe</tspan></text>
    <text
       xml:space="preserve"
       style="font-style:normal;font-variant:normal;font-weight:normal;font-stretch:normal;font-size:4.23333px;font-family:sans-serif;-inkscape-font-specification:'sans-serif, Normal';font-variant-ligatures:normal;font-variant-caps:normal;font-variant-numeric:normal;font-variant-east-asian:normal;fill:#000000;stroke-width:0.264583"
       x="96.738281"
       y="210.19905"
       id="text18-8-7"><tspan
         sodipodi:role="line"
         id="tspan25"
         x="96.738281"
         y="210.19905">Heel</tspan></text>
  </g>
</svg>
